<svg width="100" height="100" viewBox="0 0 90 80" fill="none" xmlns="http://www.w3.org/2000/svg">
<rect width="100" height="100" rx="50" fill="white"/>
<path d="M17.5526 70.8005C17.9815 70.8005 18.5655 70.6748 19.3049 70.4235C20.0442 70.1721 20.8575 69.7728 21.7448 69.2257C22.632 68.6638 23.5562 67.9466 24.5173 67.0742C25.4785 66.2018 26.4027 65.1371 27.2899 63.8802L41.0861 44.2505H63.4663L75.5547 63.3922C76.3975 64.7231 77.3143 65.8617 78.305 66.808C79.2958 67.7396 80.2717 68.5012 81.2329 69.0926C82.2088 69.6841 83.1182 70.1203 83.9611 70.4013C84.8187 70.6674 85.5359 70.8005 86.1126 70.8005V72.8855H43.5038V70.8005C44.1545 70.8005 44.7977 70.7118 45.4335 70.5344C46.0842 70.3569 46.6608 70.0908 47.1636 69.7359C47.6812 69.3662 48.0952 68.9078 48.4057 68.3607C48.7162 67.8136 48.8715 67.1703 48.8715 66.431C48.8715 66.1204 48.7976 65.7138 48.6497 65.211H30.9718C30.8979 65.4181 30.8462 65.6029 30.8166 65.7656C30.787 65.9282 30.7722 66.0835 30.7722 66.2313C30.7722 66.9855 30.9275 67.6509 31.238 68.2276C31.5485 68.7895 31.9552 69.2627 32.4579 69.6471C32.9755 70.0316 33.5522 70.32 34.188 70.5122C34.8386 70.7044 35.4967 70.8005 36.1621 70.8005V72.8855H17.5526V70.8005ZM47.3189 62.128C47.0083 61.5365 46.6461 60.8563 46.232 60.0873C45.818 59.3036 45.33 58.4164 44.7681 57.4257C44.2062 56.435 43.5704 55.3259 42.8606 54.0986C42.1656 52.8713 41.3745 51.5035 40.4873 49.9952C39.467 51.5331 38.5428 52.923 37.7147 54.1652C36.8866 55.4073 36.1473 56.5237 35.4967 57.5144C34.8608 58.5051 34.2989 59.3776 33.8109 60.1317C33.3378 60.8858 32.9311 61.5513 32.591 62.128H47.3189Z" fill="#FF0000"/>
<path d="M64.3895 47H59.4146L51.7517 24.8539L44.0086 47H38.9936L49.3445 17.4718H54.1188L64.3895 47ZM54.3996 37.612L55.5631 40.8617H47.9002L49.0236 37.612H54.3996Z" fill="#FF0000"/>
<rect x="17.4619" y="75.339" width="67.5381" height="0.584746" fill="#FF0000"/>
</svg>
